PathFileType	4	(X/Y/Z)	/home/alexbeat/data/kuopio-gait-dataset/01/mocap/calib_static_markers.trc
DataRate	CameraRate	NumFrames	NumMarkers	Units	OrigDataRate	OrigDataStartFrame	OrigNumFrames
100.000000	100.000000	4	70	mm	100.000000	105	211
Frame#	Time	Pelvis1			Pelvis2			Pelvis3			Pelvis4			Torso1			Torso2			Torso3			Torso4			RFemur1			RFemur2			RFemur3			RFemur4			LFemur1			LFemur2			LFemur3			LFemur4			RTibia1			RTibia2			RTibia3			RTibia4			LTibia1			LTibia2			LTibia3			LTibia4			LFoot1			LFoot2			LFoot3			RFoot1			RFoot2			RFoot3			*30			*31			*32			*33			*34			*35			*36			*37			*38			Pelvis_RFemur_score			Pelvis_LFemur_score			RFemur_RTibia_score			RFemur_RTibia_sara			LFemur_LTibia_score			LFemur_LTibia_sara			RKnee			LKnee			RTibia_RFoot_score			LTibia_LFoot_score			USERMO0			USERMO1			USERMO2			USERMO3			USERMO4			USERMO5			USERMO6			USERMO7			USERMO8			USERMO9			USERMO10			USERMO11			USERMO12			USERMO13			USERMO14			USERMO15			USERMO16			USERMO17			USERMO18			USERMO19			USERMO20			
		X1	Y1	Z1	X2	Y2	Z2	X3	Y3	Z3	X4	Y4	Z4	X5	Y5	Z5	X6	Y6	Z6	X7	Y7	Z7	X8	Y8	Z8	X9	Y9	Z9	X10	Y10	Z10	X11	Y11	Z11	X12	Y12	Z12	X13	Y13	Z13	X14	Y14	Z14	X15	Y15	Z15	X16	Y16	Z16	X17	Y17	Z17	X18	Y18	Z18	X19	Y19	Z19	X20	Y20	Z20	X21	Y21	Z21	X22	Y22	Z22	X23	Y23	Z23	X24	Y24	Z24	X25	Y25	Z25	X26	Y26	Z26	X27	Y27	Z27	X28	Y28	Z28	X29	Y29	Z29	X30	Y30	Z30	X31	Y31	Z31	X32	Y32	Z32	X33	Y33	Z33	X34	Y34	Z34	X35	Y35	Z35	X36	Y36	Z36	X37	Y37	Z37	X38	Y38	Z38	X39	Y39	Z39	X40	Y40	Z40	X41	Y41	Z41	X42	Y42	Z42	X43	Y43	Z43	X44	Y44	Z44	X45	Y45	Z45	X46	Y46	Z46	X47	Y47	Z47	X48	Y48	Z48	X49	Y49	Z49	X50	Y50	Z50	X51	Y51	Z51	X52	Y52	Z52	X53	Y53	Z53	X54	Y54	Z54	X55	Y55	Z55	X56	Y56	Z56	X57	Y57	Z57	X58	Y58	Z58	X59	Y59	Z59	X60	Y60	Z60	X61	Y61	Z61	X62	Y62	Z62	X63	Y63	Z63	X64	Y64	Z64	X65	Y65	Z65	X66	Y66	Z66	X67	Y67	Z67	X68	Y68	Z68	X69	Y69	Z69	X70	Y70	Z70	

106	1.05	306.6013488769531	-344.8672485351562	1027.522216796875	225.9615936279297	-347.4713439941406	1030.312744140625	227.8850708007812	-315.5526123046875	916.2160034179688	297.7102661132812	-314.0162963867188	916.9876098632812	262.0888671875	-502.7276611328125	1422.73095703125	91.05131530761719	-447.5257263183594	1440.220703125	435.4615478515625	-441.7328491210938	1465.196166992188	253.7197570800781	-369.5979614257812	1491.221923828125	91.13362884521484	-398.1575012207031	647.4303588867188	101.3898239135742	-394.1988525390625	545.18994140625	89.76105499267578	-422.6203308105469	592.379638671875	85.08847808837891	-459.7847290039062	591.5392456054688	434.38232421875	-421.7601013183594	668.7945556640625	433.5884094238281	-483.2222595214844	632.2120361328125	423.4143371582031	-422.762451171875	563.1265258789062	434.5133056640625	-441.201416015625	634.136962890625	93.0538330078125	-377.2909240722656	363.6119995117188	97.11907958984375	-396.4693298339844	419.1502380371094	92.14804840087891	-391.6627807617188	317.5402221679688	109.5784912109375	-338.8814697265625	366.5266418457031	426.4142761230469	-363.5281677246094	372.5259704589844	432.0960998535156	-405.1607360839844	350.4071350097656	424.0020141601562	-412.8483276367188	285.2339172363281	424.7382202148438	-430.1834106445312	394.6437072753906	335.2818603515625	-320.4203796386719	28.14386940002441	377.77783203125	-555.2786254882812	23.25897789001465	421.9500427246094	-505.9518737792969	23.20706176757812	179.6495971679688	-331.5353088378906	26.46679496765137	118.2066192626953	-561.9760131835938	22.2607421875	76.24304962158203	-505.9652099609375	20.99904441833496	1498.229248046875	1841.727416992188	615.0169677734375	1584.318969726562	1909.338134765625	704.5455322265625	1627.377319335938	1802.720825195312	662.846923828125	1628.10302734375	1821.244018554688	658.2853393554688	-3557.03076171875	-673.3718872070312	994.5538940429688	-3551.9091796875	-669.24755859375	971.559326171875	nan	nan	nan	nan	nan	nan	nan	nan	nan	140.0640411376953	-453.3543090820312	903.9276733398438	375.6841735839844	-457.3263549804688	892.1922607421875	145.2550354003906	-417.3201293945312	461.25341796875	244.0153656005859	-431.9116821289062	467.0399475097656	364.3177185058594	-433.1676025390625	458.4341125488281	264.4380493164062	-437.1242065429688	461.3321533203125	145.2550048828125	-417.3200073242188	461.2529907226562	364.3179931640625	-433.1679992675781	458.4339904785156	223.0052032470703	-356.7550048828125	8.841789245605469	373.1454772949219	-337.5077209472656	18.63079833984375	-0.8914973735809326	1.482357025146484	-0.73698490858078	0.4305411875247955	-0.4425990879535675	0.6213876605033875	0.1000000014901161	0.1000000014901161	0.1000000014901161	0.0002256605657748878	0.02880255319178104	-1.385841608047485	0.3783366084098816	-0.4605503082275391	0.02486997097730637	0.1000000014901161	0.1000000014901161	0.1000000014901161	-1.074271678924561	1.399279952049255	-0.6337369084358215	0.4275354743003845	-0.3938444256782532	0.3360498547554016	0.1000000014901161	0.1000000014901161	0.1000000014901161	-0.07613912969827652	2.507460832595825	-1.898219227790833	0.2534589469432831	-0.3359263837337494	0.9914572238922119	0.1000000014901161	0.1000000014901161	0.1000000014901161	2.463419437408447	-0.2034101039171219	-2.238653898239136	0.09417501837015152	-0.4050268828868866	0.5949822068214417	0.1000000014901161	0.1000000014901161	0.1000000014901161	-1.88193666934967	2.469657421112061	-0.02843925915658474	0.1246997565031052	-0.4664922058582306	0.02324219420552254	0.1000000014901161	0.1000000014901161	0.1000000014901161	2.463396072387695	-0.3354824781417847	2.328678607940674	0.09413624554872513	-0.3884651660919189	0.366727352142334	0.1000000014901161	0.1000000014901161	0.1000000014901161	
107	1.06	306.6204833984375	-344.8438110351562	1027.511596679688	225.9462127685547	-347.4574279785156	1030.314208984375	227.8792877197266	-315.5443115234375	916.2059936523438	297.7274780273438	-313.9634704589844	916.9855346679688	262.073974609375	-502.7618408203125	1422.748168945312	91.05753326416016	-447.5765991210938	1440.241333007812	435.4564208984375	-441.7664184570312	1465.227294921875	253.7098083496094	-369.6306457519531	1491.232543945312	91.14600372314453	-398.1785888671875	647.3898315429688	101.3953399658203	-394.2026062011719	545.171630859375	89.75856781005859	-422.5859375	592.3447265625	85.1051025390625	-459.7750549316406	591.5325317382812	434.3892822265625	-421.7426147460938	668.79833984375	433.5843505859375	-483.2017517089844	632.1972045898438	423.4232482910156	-422.7400512695312	563.1242065429688	434.5133972167969	-441.1676330566406	634.1295166015625	93.05226135253906	-377.2934875488281	363.6100463867188	97.12030029296875	-396.4468994140625	419.1551818847656	92.00579833984375	-391.7838745117188	317.5508117675781	109.5457763671875	-338.8721313476562	366.5256042480469	426.3966369628906	-363.4887084960938	372.5274047851562	432.1158752441406	-405.1270141601562	350.40869140625	423.9945373535156	-412.82080078125	285.2323303222656	424.7186889648438	-430.1466674804688	394.6346435546875	335.2773132324219	-320.4137573242188	28.14618682861328	377.7738037109375	-555.2940673828125	23.26055145263672	421.9488830566406	-505.9488830566406	23.18812561035156	179.6438140869141	-331.4947204589844	26.46355628967285	118.2078552246094	-561.978515625	22.23428153991699	76.24324798583984	-505.9500732421875	20.98788070678711	1498.242797851562	1841.73583984375	615.0164794921875	1584.317504882812	1909.35009765625	704.5557861328125	1627.412841796875	1802.670776367188	662.8701782226562	1628.117919921875	1821.229370117188	658.2325439453125	nan	nan	nan	nan	nan	nan	nan	nan	nan	nan	nan	nan	nan	nan	nan	140.1031494140625	-453.3567199707031	903.899658203125	375.7042541503906	-457.2872619628906	892.1832275390625	145.2841033935547	-417.2903137207031	461.2293395996094	244.0458374023438	-431.8940734863281	466.9606628417969	364.3136901855469	-433.1265258789062	458.4268188476562	264.4336242675781	-437.0775451660156	461.3180236816406	145.2839965820312	-417.2900085449219	461.22900390625	364.3139953613281	-433.1270141601562	458.427001953125	222.7590179443359	-356.9421997070312	8.746742248535156	373.1568603515625	-337.4993286132812	18.62061309814453	-0.8913176655769348	1.482436418533325	-0.7370464205741882	0.4305441975593567	-0.4425751566886902	0.6213824152946472	0.1000000014901161	0.1000000014901161	0.1000000014901161	-0.0001041580617311411	0.02908172644674778	-1.385834932327271	0.3783333599567413	-0.4605522751808167	0.02486495487391949	0.1000000014901161	0.1000000014901161	0.1000000014901161	-1.074278950691223	1.399145364761353	-0.6337865591049194	0.4275305271148682	-0.3938106000423431	0.3360476791858673	0.1000000014901161	0.1000000014901161	0.1000000014901161	-0.07643948495388031	2.507353067398071	-1.897952079772949	0.2534630298614502	-0.3359069228172302	0.9914505481719971	0.1000000014901161	0.1000000014901161	0.1000000014901161	2.463320255279541	-0.2033378034830093	-2.238738059997559	0.09418242424726486	-0.4050219655036926	0.594957172870636	0.1000000014901161	0.1000000014901161	0.1000000014901161	-1.8820561170578	2.469628572463989	-0.0281041469424963	0.1246983110904694	-0.4664744436740875	0.02322857454419136	0.1000000014901161	0.1000000014901161	0.1000000014901161	2.464084625244141	-0.3349577188491821	2.326500177383423	0.09408821910619736	-0.3884868025779724	0.3667470216751099	0.1000000014901161	0.1000000014901161	0.1000000014901161	
108	1.07	306.6038513183594	-344.846923828125	1027.526977539062	225.9375610351562	-347.4540405273438	1030.335083007812	227.8668518066406	-315.5556945800781	916.216064453125	297.7085266113281	-313.9857177734375	916.9981689453125	262.0821533203125	-502.812744140625	1422.794921875	91.06109619140625	-447.6239929199219	1440.269165039062	435.4474487304688	-441.8134460449219	1465.270629882812	253.7012329101562	-369.6600646972656	1491.2421875	91.14997100830078	-398.1690368652344	647.3892211914062	101.4027099609375	-394.1966552734375	545.1770629882812	89.79088592529297	-422.6029968261719	592.3385009765625	85.09685516357422	-459.776123046875	591.5511474609375	434.3818969726562	-421.7281799316406	668.8023681640625	433.564208984375	-483.1463317871094	632.1939697265625	423.4205627441406	-422.73046875	563.1361083984375	434.5086364746094	-441.1499633789062	634.1453247070312	93.04547119140625	-377.3150939941406	363.631103515625	97.12800598144531	-396.4684143066406	419.1549682617188	92.15340423583984	-391.6849670410156	317.5311584472656	109.5770263671875	-338.8682250976562	366.5259094238281	426.4154052734375	-363.4898986816406	372.5143432617188	432.0925598144531	-405.111328125	350.407958984375	424.0066528320312	-412.8001708984375	285.2319030761719	424.718017578125	-430.1409301757812	394.6468200683594	335.2814636230469	-320.3975830078125	28.1434211730957	377.7810363769531	-555.2849731445312	23.26340866088867	421.945068359375	-505.9504699707031	23.18810653686523	179.6330871582031	-331.5135192871094	26.4687557220459	118.2043380737305	-561.9752807617188	22.25302505493164	76.24388122558594	-505.9602661132812	21.00242233276367	1498.229736328125	1841.838256835938	614.6818237304688	1584.311157226562	1909.339477539062	704.5003051757812	1627.216430664062	1802.6376953125	662.860595703125	1628.088623046875	1821.274169921875	658.3283081054688	nan	nan	nan	nan	nan	nan	nan	nan	nan	nan	nan	nan	nan	nan	nan	140.0859527587891	-453.3473205566406	903.9242553710938	375.6788024902344	-457.2810974121094	892.2010498046875	145.26806640625	-417.3148498535156	461.246337890625	244.0301818847656	-431.8947448730469	467.0316772460938	364.3056335449219	-433.0983276367188	458.4262084960938	264.4244689941406	-437.0256042480469	461.3120422363281	145.2680053710938	-417.3150024414062	461.2460021972656	364.3059997558594	-433.0979919433594	458.4259948730469	222.9896087646484	-356.7593688964844	8.836501121520996	373.1819458007812	-337.478271484375	18.6179084777832	-0.8911999464035034	1.482500910758972	-0.7372255325317383	0.4305354952812195	-0.4425508081912994	0.6213895678520203	0.1000000014901161	0.1000000014901161	0.1000000014901161	-0.0001522020465927199	0.02908741682767868	-1.385858774185181	0.3783358633518219	-0.4605443775653839	0.02486497908830643	0.1000000014901161	0.1000000014901161	0.1000000014901161	-1.074041128158569	1.399266958236694	-0.634005069732666	0.4275359213352203	-0.3938001692295074	0.3360474705696106	0.1000000014901161	0.1000000014901161	0.1000000014901161	-0.07635686546564102	2.507286071777344	-1.89820921421051	0.2534491419792175	-0.3359112143516541	0.9914666414260864	0.1000000014901161	0.1000000014901161	0.1000000014901161	2.463364124298096	-0.2035961300134659	-2.238674640655518	0.09419288486242294	-0.4050228297710419	0.5949601531028748	0.1000000014901161	0.1000000014901161	0.1000000014901161	-1.882089734077454	2.469630002975464	-0.0281990896910429	0.1246937736868858	-0.4664830565452576	0.02324140258133411	0.1000000014901161	0.1000000014901161	0.1000000014901161	2.463578462600708	-0.3349515497684479	2.328685760498047	0.09414099901914597	-0.3884743452072144	0.3667328953742981	0.1000000014901161	0.1000000014901161	0.1000000014901161	
109	1.08	306.6105651855469	-344.8323974609375	1027.548095703125	225.9595336914062	-347.466064453125	1030.340454101562	227.8715057373047	-315.5370178222656	916.2484741210938	297.6999206542969	-313.9877624511719	917.00390625	262.0895690917969	-502.8478698730469	1422.814331054688	91.05490875244141	-447.6731567382812	1440.310546875	435.4491271972656	-441.8499450683594	1465.2958984375	253.7074737548828	-369.6927795410156	1491.262329101562	91.12265014648438	-398.164306640625	647.4271850585938	101.3989562988281	-394.182861328125	545.1948852539062	89.78558349609375	-422.6032104492188	592.3648071289062	85.09175872802734	-459.7757873535156	591.5596313476562	434.3808898925781	-421.7142944335938	668.8187866210938	433.5804443359375	-483.1330871582031	632.20947265625	423.4085998535156	-422.6985168457031	563.138916015625	434.4913024902344	-441.1388549804688	634.1342163085938	93.06474304199219	-377.2781066894531	363.62890625	97.12285614013672	-396.4447631835938	419.1891784667969	92.06393432617188	-391.7309265136719	317.5689392089844	109.5764083862305	-338.8569030761719	366.5297241210938	426.4367980957031	-363.4775390625	372.5361022949219	432.0881652832031	-405.1060180664062	350.4063110351562	424.0144348144531	-412.8212585449219	285.2443542480469	424.716796875	-430.1289367675781	394.6378784179688	335.2835388183594	-320.3956909179688	28.1691837310791	377.7832946777344	-555.2803344726562	23.28372383117676	421.9544372558594	-505.947021484375	23.2110481262207	179.6489562988281	-331.5322265625	26.48786163330078	118.2069702148438	-561.9760131835938	22.27271270751953	76.23896026611328	-505.9596862792969	21.02347373962402	1498.266723632812	1841.729614257812	615.1248779296875	1584.267211914062	1909.328125	704.499267578125	1627.38525390625	1802.706176757812	662.8568725585938	1628.1162109375	1821.216552734375	658.280517578125	-3557.088623046875	-673.3919677734375	994.5944213867188	-3552.315185546875	-669.334716796875	971.5202026367188	nan	nan	nan	nan	nan	nan	nan	nan	nan	140.0528564453125	-453.3599548339844	903.9486083984375	375.6924438476562	-457.2892150878906	892.2023315429688	145.2900543212891	-417.2863464355469	461.2660522460938	244.0495147705078	-431.8925170898438	467.0304260253906	364.2933959960938	-433.0705871582031	458.4362182617188	264.4123229980469	-436.9981384277344	461.324951171875	145.2899932861328	-417.2860107421875	461.2659912109375	364.2929992675781	-433.0710144042969	458.4360046386719	222.8582458496094	-356.9132995605469	8.799406051635742	373.2015380859375	-337.4898681640625	18.62874031066895	-0.8913557529449463	1.482416987419128	-0.7368598580360413	0.4305318892002106	-0.4425331652164459	0.621395468711853	0.1000000014901161	0.1000000014901161	0.1000000014901161	-0.0001064477619365789	0.02908166311681271	-1.385846853256226	0.3783404529094696	-0.4605410397052765	0.02488798648118973	0.1000000014901161	0.1000000014901161	0.1000000014901161	-1.073933720588684	1.399416089057922	-0.6343470215797424	0.427545040845871	-0.3938002288341522	0.3360522091388702	0.1000000014901161	0.1000000014901161	0.1000000014901161	-0.076554074883461	2.507382869720459	-1.898128986358643	0.2534576952457428	-0.3359087407588959	0.9914835691452026	0.1000000014901161	0.1000000014901161	0.1000000014901161	2.463607788085938	-0.203211784362793	-2.238429546356201	0.09418001770973206	-0.4050178825855255	0.5949850082397461	0.1000000014901161	0.1000000014901161	0.1000000014901161	-1.881991028785706	2.46973443031311	-0.02815971523523331	0.1246983036398888	-0.4664893448352814	0.02326134964823723	0.1000000014901161	0.1000000014901161	0.1000000014901161	2.463607788085938	-0.3352073729038239	2.327157020568848	0.0941130742430687	-0.3884650468826294	0.3667616248130798	0.1000000014901161	0.1000000014901161	0.1000000014901161	
